<svg xmlns="http://www.w3.org/2000/svg" viewBox="-5 -5 110 110">
  <path d="M14 44 L28 6 L44 42 Z" fill="#2e1c48"/>
  <path d="M22 40 L28 14 L38 38 Z" fill="#aa3bff"/>
  <path d="M86 44 L76 22 L58 40 Z" fill="#2e1c48"/>
  <path d="M76 22 Q73 30 68 36 L62 32 Q70 28 76 22 Z" fill="#aa3bff"/>
  <path d="M14 44 Q16 38 30 38 L50 32 L70 38 Q84 38 86 44 L66 74 Q50 90 34 74 Z" fill="#2e1c48"/>
  <ellipse cx="36" cy="57" rx="6.5" ry="8" fill="#ffc86b"/>
  <ellipse cx="64" cy="57" rx="6.5" ry="8" fill="#ffc86b"/>
  <ellipse cx="36" cy="57" rx="1.6" ry="5.5" fill="#120a1f"/>
  <ellipse cx="64" cy="57" rx="1.6" ry="5.5" fill="#120a1f"/>
  <ellipse cx="50" cy="79" rx="5" ry="4" fill="#120a1f"/>
</svg>
